<!--<svg xmlns="http://www.w3.org/2000/svg" fill="none" viewBox="0 0 24 24" stroke-width="1.5" stroke="currentColor" class="w-6 h-6">
  <path stroke-linecap="round" stroke-linejoin="round" d="m11.25 11.25.041-.02a.75.75 0 0 1 1.063.852l-.708 2.836a.75.75 0 0 0 1.063.853l.041-.021M21 12a9 9 0 1 1-18 0 9 9 0 0 1 18 0Zm-9-3.75h.008v.008H12V8.25Z" />
</svg>-->
<svg xmlns="http://www.w3.org/2000/svg" width="3em" height="3em" viewBox="0 0 24 24">
<g fill="none" stroke="currentColor" stroke-linecap="round" stroke-width="2"><path stroke-dasharray="60" stroke-dashoffset="60" d="M12 3C16.9706 3 21 7.02944 21 12C21 16.9706 16.9706 21 12 21C7.02944 21 3 16.9706 3 12C3 7.02944 7.02944 3 12 3Z"><animate fill="freeze" attributeName="stroke-dashoffset" dur="0.5s" values="60;0"/></path><path stroke-dasharray="8" stroke-dashoffset="8" d="M12 7V13"><animate fill="freeze" attributeName="stroke-dashoffset" begin="0.6s" dur="0.2s" values="8;0"/></path></g>
<circle cx="12" cy="17" r="1" fill="currentColor" fill-opacity="0">
<animate fill="freeze" attributeName="fill-opacity" begin="0.8s" dur="0.4s" values="0;1"/></circle></svg>
